<?xml version="1.0" encoding="UTF-8" standalone="no"?>
<svg
   xmlns:dc="http://purl.org/dc/elements/1.1/"
   xmlns:cc="http://creativecommons.org/ns#"
   xmlns:rdf="http://www.w3.org/1999/02/22-rdf-syntax-ns#"
   xmlns:svg="http://www.w3.org/2000/svg"
   xmlns="http://www.w3.org/2000/svg"
   id="svg8"
   version="1.1"
   viewBox="0 0 210 297"
   height="297mm"
   width="210mm">
  <defs
     id="defs2" />
  <metadata
     id="metadata5">
    <rdf:RDF>
      <cc:Work
         rdf:about="">
        <dc:format>image/svg+xml</dc:format>
        <dc:type
           rdf:resource="http://purl.org/dc/dcmitype/StillImage" />
        <dc:title></dc:title>
      </cc:Work>
    </rdf:RDF>
  </metadata>
  <g
     id="layer1">
    <path
       id="path14"
       d="m 111.28724,100.00364 6.95545,8.97478 2.01932,14.35964 v 10.9941 l -0.44874,15.4815 0.44874,14.13527 -1.79495,11.89158 -0.44874,5.60923"
       style="fill:none;fill-rule:evenodd;stroke:#000000;stroke-width:0.26458332px;stroke-linecap:butt;stroke-linejoin:miter;stroke-opacity:1" />
    <path
       id="path16"
       d="m 118.24269,108.97842 7.85293,7.40419 3.81428,11.44284 0.22437,17.50081 -0.44874,19.74451 -11.66721,16.37897"
       style="fill:none;fill-rule:evenodd;stroke:#000000;stroke-width:0.26458332px;stroke-linecap:butt;stroke-linejoin:miter;stroke-opacity:1" />
    <path
       id="path18"
       d="M 120.26201,134.33216 Z"
       style="fill:none;fill-rule:evenodd;stroke:#000000;stroke-width:0.26458332px;stroke-linecap:butt;stroke-linejoin:miter;stroke-opacity:1" />
    <path
       id="path22"
       d="M 111.28724,100.00364 98.25832,91.603124 70.657334,81.301811 38.325827,83.946975 25.129376,96.18936 l -2.019325,18.62266 6.057975,18.62267 21.763834,14.35964 28.719287,6.50671 12.115948,-8.0773 1.570585,-13.23779 -10.320993,-11.66721 H 65.067134 l -7.179823,9.19914 6.955454,9.19915 20.193248,3.36554 -2.692434,-10.76973 6.731082,1.57058 0.673108,11.44284 -26.026853,5.38487 -18.173922,-16.60334 3.814281,-10.54536 19.744507,-9.19915 H 89.5234 l 9.872254,18.17393 -5.833604,19.52014 -30.738612,12.34032 -25.802483,2.01932 9.423516,19.29577 31.860458,15.03275 34.552891,-3.58991 9.64789,-3.14117 -4.48739,-12.56469"
       style="fill:none;fill-rule:evenodd;stroke:#000000;stroke-width:0.26458332px;stroke-linecap:butt;stroke-linejoin:miter;stroke-opacity:1" />
  </g>
</svg>
